# xmcd
#
# Track frame offsets:
#	150
#	15389
#	32537
#	54872
#	70099
#	89770
#	105152
#	116197
#	134916
#	145910
#	155306
#	174562
#	188144
#	201369
#	211589
#	228716
#	247842
#	272005
#	297663
#
# Disc length: 4146 seconds
#
# Revision: 0
# Processed by: cddbd v1.5.2PL0 Copyright (c) Steve Scherf et al.
# Submitted via: EZCDAudioConverter 1.3.4.1
#
DISCID=12103013
DTITLE=Liam Finn - I'll Be Lightning
DYEAR=1900
DGENRE=
TTITLE0=Turn Up The Birds
TTITLE1=Better To Be
TTITLE2=Second Chance
TTITLE3=Gather To The Chapel
TTITLE4=Lead Balloon
TTITLE5=Fire In Your Belly
TTITLE6=Music Moves My Feet
TTITLE7=This Place Is Killing Me
TTITLE8=I'd Rather Waste You Than The Money On My Phone
TTITLE9=Lullaby
TTITLE10=I'll Be Lightning
TTITLE11=Remember When
TTITLE12=Come Home Sam
TTITLE13=I Found Noise At ATP
TTITLE14=I Will Explode
TTITLE15=Energy Spent
TTITLE16=Wise Man
TTITLE17=Wide Awake On The Voyage Home
TTITLE18=Shadow Of Your Man
EXTD=
EXTT0=
EXTT1=
EXTT2=
EXTT3=
EXTT4=
EXTT5=
EXTT6=
EXTT7=
EXTT8=
EXTT9=
EXTT10=
EXTT11=
EXTT12=
EXTT13=
EXTT14=
EXTT15=
EXTT16=
EXTT17=
EXTT18=
PLAYORDER=
